<?xml version="1.0" encoding="UTF-8" standalone="no"?>
<svg
   xmlns:dc="http://purl.org/dc/elements/1.1/"
   xmlns:cc="http://creativecommons.org/ns#"
   xmlns:rdf="http://www.w3.org/1999/02/22-rdf-syntax-ns#"
   xmlns:svg="http://www.w3.org/2000/svg"
   xmlns="http://www.w3.org/2000/svg"
   xmlns:sodipodi="http://sodipodi.sourceforge.net/DTD/sodipodi-0.dtd"
   xmlns:inkscape="http://www.inkscape.org/namespaces/inkscape"
   width="32"
   height="32"
   version="1.1"
   id="svg19"
   sodipodi:docname="iconfinder-icon.svg"
   inkscape:version="0.92.3 (2405546, 2018-03-11)">
  <metadata
     id="metadata25">
    <rdf:RDF>
      <cc:Work
         rdf:about="">
        <dc:format>image/svg+xml</dc:format>
        <dc:type
           rdf:resource="http://purl.org/dc/dcmitype/StillImage" />
      </cc:Work>
    </rdf:RDF>
  </metadata>
  <defs
     id="defs23" />
  <sodipodi:namedview
     pagecolor="#ffffff"
     bordercolor="#666666"
     borderopacity="1"
     objecttolerance="10"
     gridtolerance="10"
     guidetolerance="10"
     inkscape:pageopacity="0"
     inkscape:pageshadow="2"
     inkscape:window-width="1853"
     inkscape:window-height="1025"
     id="namedview21"
     showgrid="false"
     inkscape:zoom="7.375"
     inkscape:cx="16"
     inkscape:cy="16"
     inkscape:window-x="67"
     inkscape:window-y="27"
     inkscape:window-maximized="1"
     inkscape:current-layer="svg19" />
  <title
     id="title2" />
  <desc
     id="desc4" />
  <g
     id="g9">
    <title
       id="title6">background</title>
    <rect
       id="canvas_background"
       height="402"
       width="582"
       y="-1"
       x="-1"
       fill="none" />
  </g>
  <g
     id="g17"
     transform="translate(5.8305085,1.4915254)">
    <title
       id="title11">Layer 1</title>
    <path
       id="Fill-1"
       d="m 6.0775,3.8803 v 20.038 h 11.305 c 0.902,0 1.593,0.219 2.075,0.657 0.482,0.438 0.723,0.989 0.723,1.652 0,0.676 -0.238,1.224 -0.713,1.644 -0.476,0.419 -1.171,0.629 -2.085,0.629 H 3.9175 c -1.214,0 -2.087,-0.269 -2.619,-0.808 -0.532,-0.538 -0.798,-1.408 -0.798,-2.61 V 3.8803 c 0,-1.127 0.253,-1.972 0.76,-2.535 0.507,-0.564 1.174,-0.845 2,-0.845 0.839,0 1.518,0.278 2.038,0.835 0.519,0.558 0.779,1.406 0.779,2.545"
       inkscape:connector-curvature="0"
       style="fill:#f42f42" />
    <path
       id="Stroke-3"
       d="m 6.0775,3.8803 v 20.038 h 11.305 c 0.902,0 1.593,0.219 2.075,0.657 0.482,0.438 0.723,0.989 0.723,1.652 0,0.676 -0.238,1.224 -0.713,1.644 -0.476,0.419 -1.171,0.629 -2.085,0.629 H 3.9175 c -1.214,0 -2.087,-0.269 -2.619,-0.808 -0.532,-0.538 -0.798,-1.408 -0.798,-2.61 V 3.8803 c 0,-1.127 0.253,-1.972 0.76,-2.535 0.507,-0.564 1.174,-0.845 2,-0.845 0.839,0 1.518,0.278 2.038,0.835 0.519,0.558 0.779,1.406 0.779,2.545 z"
       inkscape:connector-curvature="0"
       style="fill:#49757a;stroke:#000000" />
    <path
       id="Stroke-5"
       d="m 2.3755,2.3477 c 0.154,-0.172 0.381,-0.348 0.885,-0.348"
       inkscape:connector-curvature="0"
       style="stroke:#ffffff;stroke-linecap:round;stroke-linejoin:round;stroke-dasharray:1, 2, 6, 2, 3" />
    <path
       id="Fill-7"
       d="m 19.1363,26.4961 c -0.379,0.334 -0.97,0.504 -1.754,0.504 H 3.9173 c -1.069,0 -1.831,-0.222 -2.263,-0.659 -0.435,-0.44 -0.655,-1.199 -0.655,-2.259 v 1 c 0,1.06 0.22,1.819 0.655,2.259 0.432,0.437 1.194,0.659 2.263,0.659 h 13.465 c 0.784,0 1.375,-0.17 1.754,-0.504 0.367,-0.323 0.545,-0.738 0.545,-1.269 0,-0.177 -0.03,-0.339 -0.073,-0.494 -0.081,0.297 -0.232,0.552 -0.472,0.763"
       inkscape:connector-curvature="0"
       style="opacity:0.20376599;fill:#1c494e" />
  </g>
</svg>
